HIERARCHY
ROOT Hips
{
	OFFSET 0.000000 0.000000 0.000000 
	CHANNELS 6 Xposition Yposition Zposition Yrotation Zrotation Xrotation 
	JOINT Lumbar
	{
		OFFSET 0.000000 0.000000 0.000000 
		CHANNELS 3 Zrotation Xrotation Yrotation
		JOINT Neck
		{
			OFFSET 0.000000 0.445665 0.000000 
			CHANNELS 3 Zrotation Xrotation Yrotation
			End Site
			{
				OFFSET 0.000000 0.227535 0.000000 
			}
		}
		JOINT RightShoulder
		{
			OFFSET 0.019635 0.377685 0.194865 
			CHANNELS 3 Zrotation Xrotation Yrotation
			JOINT RightElbow
			{
				OFFSET 0.000000 -0.243375 0.000000 
				CHANNELS 2 Zrotation Yrotation
				JOINT RightWrist
				{
					OFFSET 0.000000 -0.264825 0.000000 
					CHANNELS 2 Zrotation Xrotation
					End Site
					{
						OFFSET 0.006600 -0.176220 0.000990 
					}
				}
			}
		}
		JOINT LeftShoulder
		{
			OFFSET 0.019635 0.377685 -0.194865 
			CHANNELS 3 Zrotation Xrotation Yrotation
			JOINT LeftElbow
			{
				OFFSET 0.000000 -0.243375 0.000000 
				CHANNELS 2 Zrotation Yrotation
				JOINT LeftWrist
				{
					OFFSET 0.000000 -0.264825 0.000000 
					CHANNELS 2 Zrotation Xrotation
					End Site
					{
						OFFSET 0.006600 -0.176220 -0.000990 
					}
				}
			}
		}
	}
	JOINT RightHip
	{
		OFFSET 0.052140 -0.069960 0.075570 
		CHANNELS 3 Zrotation Xrotation Yrotation
		JOINT RightKnee
		{
			OFFSET 0.000000 -0.402270 0.000000 
			CHANNELS 1 Zrotation
			JOINT RightAnkle
			{
				OFFSET 0.000000 -0.404085 0.000000 
				CHANNELS 3 Zrotation Xrotation Yrotation
				End Site
				{
					OFFSET 0.204105 -0.089430 0.008415 
				}
			}
		}
	}
	JOINT LeftHip
	{
		OFFSET 0.052140 -0.069960 -0.075570 
		CHANNELS 3 Zrotation Xrotation Yrotation
		JOINT LeftKnee
		{
			OFFSET 0.000000 -0.402270 0.000000 
			CHANNELS 1 Zrotation
			JOINT LeftAnkle
			{
				OFFSET 0.000000 -0.404085 0.000000 
				CHANNELS 3 Zrotation Xrotation Yrotation
				End Site
				{
					OFFSET 0.204105 -0.089430 -0.008415 
				}
			}
		}
	}
}
MOTION
Frames: 11
Frame Time: 0.02
0.16345 0.33942 -0.12317 221.17472 0 -14.88238 -7.73746 14.8429 -6.72256 -8.99637 -15.90998 -13.31043 97.64561 -46.07792 48.47498 99.98441 45.97398 16.44034 -11.22065 65.123 6.70088 -44.1884 81.46414 -104.01503 -79.39108 19.01169 92.03862 1.22961 0.36383 -123.44915 21.41672 2.54454 0.90496 72.41855 2.95985 8.0103 -148.91173 23.89227 40.22139 21.42851
0.16353 0.33986 -0.12545 221.57921 0 -15.0791 -8.04868 15.06791 -6.82252 -8.96187 -15.83248 -13.43314 97.35302 -46.96556 47.64664 101.54205 49.1131 15.23584 -10.84963 64.70867 6.72797 -44.24859 82.61058 -103.5789 -79.42987 19.36523 91.87874 1.29185 0.0814 -123.42548 21.38241 -3.14775 -1.08317 72.71864 3.14322 8.10818 -148.91173 23.89228 40.22143 21.42853
0.16351 0.34037 -0.12794 221.99334 0 -15.33327 -8.38099 15.27506 -7.058 -8.95441 -15.7268 -13.56992 97.12617 -47.72751 46.81447 102.87606 52.53614 14.14446 -10.39274 64.45211 6.73455 -44.25542 83.48155 -103.5675 -79.4137 19.23232 91.75239 1.23415 -0.35974 -123.43605 21.33119 -9.5046 -3.30451 73.03729 3.29487 8.08511 -148.91173 23.89229 40.22148 21.42855
0.16349 0.34082 -0.1303 222.38965 0 -15.54884 -8.69072 15.47301 -7.21963 -8.9664 -15.63738 -13.71001 96.89076 -48.54066 46.00303 104.28572 55.77822 13.02274 -9.97944 64.15889 6.75559 -44.29661 84.45786 -103.41394 -79.41794 19.27697 91.61584 1.23372 -0.71909 -123.43303 21.28881 -15.39664 -5.36027 73.3359 3.455 8.09833 -148.91173 23.89231 40.22153 21.42857
0.16364 0.34139 -0.13286 222.84128 0 -15.81812 -9.06001 15.74176 -7.43213 -8.83785 -15.5269 -13.80645 96.56644 -49.38222 45.1138 105.80333 59.25289 11.80946 -9.54576 63.71231 6.74795 -44.2883 85.51433 -103.04572 -79.44158 19.50982 91.45615 1.22303 -1.13666 -123.41768 21.2397 -22.07074 -7.70429 73.68553 3.64246 8.18842 -148.91173 23.89233 40.22159 21.4286
0.16343 0.34173 -0.13502 223.17968 0 -15.98903 -9.30834 15.86091 -7.56962 -9.01027 -15.45681 -13.99932 96.4409 -50.13132 44.38346 107.04443 62.30298 10.81542 -9.1348 63.62408 6.79934 -44.37355 86.34155 -103.21431 -79.41285 19.24276 91.35324 1.20395 -1.46498 -123.43755 21.20121 -27.24424 -9.49283 73.93241 3.76548 8.09465 -148.91173 23.89234 40.22163 21.42862
0.16218 0.3414 -0.13611 223.21376 0 -15.87147 -9.21902 15.55611 -7.48774 -10.01513 -15.49541 -14.43962 96.86893 -50.6822 44.11032 107.56601 64.13972 10.39157 -8.805 64.49429 6.99915 -44.72306 86.57996 -104.90059 -79.23893 17.59828 91.39998 1.19969 -1.49506 -123.54794 21.19729 -28.02169 -9.64318 73.89228 3.7072 7.46967 -148.91173 23.89233 40.22159 21.4286
0.16058 0.34084 -0.13678 223.1322 0 -15.6534 -9.00644 15.10435 -7.32311 -11.32079 -15.57774 -14.97853 97.49137 -51.13945 43.99466 107.81861 65.53194 10.18631 -8.50187 65.71862 7.26254 -45.17006 86.60067 -107.08905 -79.01655 15.48687 91.50265 1.18925 -1.42949 -123.69276 21.20473 -27.26615 -9.22807 73.74761 3.58661 6.67275 -148.91173 23.89231 40.22154 21.42857
0.15916 0.3404 -0.13759 223.09655 0 -15.48279 -8.84852 14.72999 -7.18188 -12.48549 -15.64788 -15.4839 98.01081 -51.62195 43.7942 108.2022 67.10822 9.88595 -8.18803 66.77746 7.51161 -45.57895 86.73787 -108.95702 -78.82549 13.66326 91.57949 1.17616 -1.41367 -123.82147 21.20652 -27.25915 -9.0988 73.64969 3.50161 5.98973 -148.91173 23.89229 40.22149 21.42854
0.15763 0.33989 -0.1386 223.08804 0 -15.30612 -8.69664 14.31021 -7.10153 -13.67197 -15.68659 -15.94633 98.59276 -52.17255 43.64602 108.54328 68.77288 9.57085 -7.8642 67.86317 7.7022 -45.96274 86.79572 -111.22578 -78.59369 11.50418 91.65979 1.18273 -1.37768 -123.95372 21.20967 -27.0664 -8.86232 73.5556 3.38557 5.15401 -148.91173 23.89228 40.22144 21.42851
0.15626 0.33947 -0.13909 222.99693 0 -15.11819 -8.50326 13.95035 -6.87772 -14.88047 -15.79891 -16.51617 99.09184 -52.56145 43.43075 108.90914 70.14104 9.33787 -7.5699 68.97221 8.02515 -46.41889 86.96521 -112.77772 -78.43544 9.93875 91.74499 1.14742 -1.35826 -124.08578 21.21298 -26.87723 -8.70445 73.42854 3.3189 4.59398 -148.91173 23.89226 40.2214 21.42849
